<svg id="Layer_1-2" xmlns="http://www.w3.org/2000/svg" width="109.577" height="32.533" viewBox="0 0 109.577 32.533">
  <g id="Group_2747" data-name="Group 2747">
    <g id="Group_2746" data-name="Group 2746" transform="translate(39.981 3.597)">
      <path id="Path_2212" data-name="Path 2212" d="M182.437,73.438l-.392.974c-.3.754-.424.942-1.162.942h-1.146v1.178h1.541c1.13,0,1.431-.5,1.933-1.79l3.693-9.365h-1.366l-2.389,6.394-2.467-6.394h-1.366l3.127,8.061Zm-3.865-8.061a2.508,2.508,0,0,0-2.418,1.211l-.172-1.211h-1.117V73.39h1.288V69.3c0-1.272.456-2.671,2.137-2.671h.644V65.378ZM170.259,71.3c0,1.415.55,2.088,2.088,2.088h1.4V72.211h-1.272c-.693,0-.926-.252-.926-.926v-4.73h2.075V65.378h-2.075V63.131h-1.288v2.247h-1.447v1.178h1.447Zm-5.484-6.018a3.149,3.149,0,0,0-2.639,1.178l-.172-1.084h-1.117V73.39h1.288V69.382c0-1.806.913-2.923,2.418-2.923,1.4,0,2.169.88,2.169,2.545v4.383h1.288V68.926c0-2.655-1.431-3.645-3.237-3.645m-12.492,8.106H159.5V72.131h-5.846v-3.71h4.7V67.165h-4.7V63.646h5.639V62.39H152.28v11Z" transform="translate(-151.386 -49.24)" fill="#231f20"/>
      <path id="Path_2213" data-name="Path 2213" d="M214.632,23.35a2.678,2.678,0,0,1-2.655-2.953,2.664,2.664,0,1,1,5.293.03,2.641,2.641,0,0,1-2.639,2.923m2.625-5.736a3.071,3.071,0,0,0-2.749-1.321,3.818,3.818,0,0,0-3.849,4.1c0,2.609,1.635,4.1,3.849,4.1a3.242,3.242,0,0,0,2.749-1.382l.172,1.288h1.117v-11h-1.288v4.212Zm-13.969,1.965a2.373,2.373,0,0,1,2.389-2.153,2.235,2.235,0,0,1,2.405,2.153h-4.791Zm2.545,4.917a3.413,3.413,0,0,0,3.489-2.781h-1.3a2.2,2.2,0,0,1-2.279,1.635,2.457,2.457,0,0,1-2.529-2.593v-.11h6.222c.016-.188.032-.376.032-.55a3.588,3.588,0,0,0-3.8-3.8,3.764,3.764,0,0,0-3.8,4.1,3.818,3.818,0,0,0,3.975,4.1m-8.673,0a3.357,3.357,0,0,0,3.567-2.829h-1.366a2.12,2.12,0,0,1-2.185,1.68,2.634,2.634,0,0,1-2.577-2.939c0-1.745,1.036-2.969,2.577-2.969a2.089,2.089,0,0,1,2.2,1.713h1.35a3.322,3.322,0,0,0-3.535-2.859,3.819,3.819,0,0,0-3.914,4.118,3.759,3.759,0,0,0,3.881,4.085m-8.391-8.2a3.145,3.145,0,0,0-2.639,1.178l-.172-1.084h-1.117V24.4h1.288V20.392c0-1.806.91-2.923,2.418-2.923,1.4,0,2.169.88,2.169,2.545V24.4h1.288V19.936c0-2.655-1.431-3.645-3.237-3.645m-7.135,4.84a2.24,2.24,0,0,1-2.529,2.263c-1.068,0-1.745-.534-1.745-1.321,0-.913.644-1.337,1.79-1.337h2.483v.392Zm1.806,2.091c-.362,0-.518-.11-.518-.534v-3.5c0-1.871-1.178-2.891-3.221-2.891-1.933,0-3.2.926-3.393,2.5H177.6a1.852,1.852,0,0,1,2.043-1.35c1.256,0,1.994.628,1.994,1.667v.55h-2.357c-2.1,0-3.221.9-3.221,2.5,0,1.46,1.194,2.341,2.953,2.341a3.049,3.049,0,0,0,2.687-1.334c.016.786.376,1.24,1.447,1.24h.706V23.227h-.408ZM171.218,24.4h1.554l3-8.012h-1.35l-2.405,6.552L169.6,16.388h-1.382l3,8.012Zm-7.873-1.052a2.678,2.678,0,0,1-2.655-2.953,2.664,2.664,0,1,1,5.293.03,2.641,2.641,0,0,1-2.639,2.923m2.625-5.736a3.074,3.074,0,0,0-2.749-1.321,3.818,3.818,0,0,0-3.849,4.1c0,2.609,1.635,4.1,3.849,4.1a3.242,3.242,0,0,0,2.749-1.382l.172,1.288h1.117V13.405H165.97v4.212Zm-12.052-2.719,1.994,5.3h-3.975ZM150.367,24.4l1.162-2.969h4.791l1.162,2.969h1.46l-4.179-11h-1.619l-4.2,11h1.415Z" transform="translate(-148.95 -13.4)" fill="#231f20"/>
      <path id="Path_2214" data-name="Path 2214" d="M287.337,74.639h.161V73.592l.44,1.047h.148l.44-1.047v1.047h.161V73.31h-.2l-.464,1.1-.47-1.1h-.209v1.329Zm-1.154-1.176h.429v1.176h.164V73.463h.429v-.15H286.18v.15Z" transform="translate(-249.345 -57.229)" fill="#231f20"/>
    </g>
    <path id="Path_2215" data-name="Path 2215" d="M23.315,22.934a1.077,1.077,0,0,1-1.3,1.052L8.753,21.16A1.077,1.077,0,0,1,7.9,20.107V12.422a1.074,1.074,0,0,1,.854-1.052l13.26-2.826a1.077,1.077,0,0,1,1.3,1.052Zm9.215-6.668A16.265,16.265,0,1,0,16.266,32.533,16.265,16.265,0,0,0,32.53,16.266" fill="#4c5fd7"/>
  </g>
</svg>
